<svg xmlns="http://www.w3.org/2000/svg" aria-hidden="true" style="position:absolute;width:0;height:0;overflow:hidden">
<defs>
<symbol id="add" viewBox="0 0 32 32"><path stroke-linecap="round" stroke-linejoin="round" stroke-width="2" d="M8 16h16M16 24V8"/></symbol>
<symbol id="arrow-3" viewBox="0 0 32 32"><path stroke-linecap="round" stroke-linejoin="round" stroke-width="2" d="M13.933 8.96 8.973 4l-4.96 4.96M8.973 28V4M18.066 23.04l4.96 4.96 4.96-4.96M23.026 4v24"/></symbol>
<symbol id="arrow-down" viewBox="0 0 32 32"><path stroke-linecap="round" stroke-linejoin="round" stroke-miterlimit="10" stroke-width="2" d="m26.56 11.933-8.693 8.693a2.647 2.647 0 0 1-3.733 0l-8.693-8.693"/></symbol>
<symbol id="arrow-right" viewBox="0 0 32 32"><path stroke-linecap="round" stroke-linejoin="round" stroke-miterlimit="10" stroke-width="2" d="M19.24 7.907 27.333 16l-8.093 8.093M4.667 16h22.44"/></symbol>
<symbol id="arrow-right-1" viewBox="0 0 32 32"><path stroke-linecap="round" stroke-linejoin="round" stroke-miterlimit="10" stroke-width="2" d="M8 16v-3.56c0-4.413 3.133-6.227 6.96-4.013L21.12 12c3.827 2.213 3.827 5.827 0 8.04l-6.16 3.573C11.133 25.786 8 23.986 8 19.56V16z"/></symbol>
<symbol id="bubble" viewBox="0 0 32 32"><path stroke-miterlimit="10" stroke-width="2" d="M20.787 16.347c3.778 0 6.84-3.062 6.84-6.84s-3.062-6.84-6.84-6.84-6.84 3.062-6.84 6.84 3.062 6.84 6.84 6.84zM8.48 25.92a4.107 4.107 0 1 0 0-8.215 4.107 4.107 0 0 0 0 8.215zM22.16 29.333a3.413 3.413 0 1 0 0-6.826 3.413 3.413 0 0 0 0 6.826z"/></symbol>
<symbol id="close-circle" viewBox="0 0 32 32"><path stroke-linecap="round" stroke-linejoin="round" stroke-width="2" d="M16 29.333c7.333 0 13.333-6 13.333-13.333S23.333 2.667 16 2.667 2.667 8.667 2.667 16s6 13.333 13.333 13.333zM12.227 19.773l7.547-7.547M19.773 19.773l-7.547-7.547"/></symbol>
<symbol id="direct-inbox" viewBox="0 0 32 32"><path stroke-linecap="round" stroke-linejoin="round" stroke-width="2" d="M16 2.667V12l2.667-2.667M16 12l-2.667-2.667M2.64 17.333h5.88c.507 0 .96.28 1.187.733l1.56 3.12a2.665 2.665 0 0 0 2.387 1.48h4.707a2.668 2.668 0 0 0 2.387-1.48l1.56-3.12a1.333 1.333 0 0 1 1.187-.733h5.813"/><path stroke-linecap="round" stroke-linejoin="round" stroke-width="2" d="M9.333 5.507c-4.72.693-6.667 3.467-6.667 9.16V20c0 6.667 2.667 9.333 9.333 9.333h8c6.667 0 9.333-2.667 9.333-9.333v-5.333c0-5.693-1.947-8.467-6.667-9.16"/></symbol>
<symbol id="edit-2" viewBox="0 0 32 32"><path stroke-linecap="round" stroke-linejoin="round" stroke-miterlimit="10" stroke-width="2" d="M17.68 4.8 6.733 16.387c-.413.44-.813 1.307-.893 1.907l-.493 4.32c-.173 1.56.947 2.627 2.493 2.36l4.293-.733c.6-.107 1.44-.547 1.853-1l10.947-11.587c1.893-2 2.747-4.28-.2-7.067-2.933-2.76-5.16-1.787-7.053.213z"/><path stroke-linecap="round" stroke-linejoin="round" stroke-miterlimit="10" stroke-width="2" d="M15.853 6.733A8.169 8.169 0 0 0 23.12 13.6M4 29.333h24"/></symbol>
<symbol id="logout" viewBox="0 0 32 32"><path stroke-linecap="round" stroke-linejoin="round" stroke-width="2" d="M11.867 10.08c.413-4.8 2.88-6.76 8.28-6.76h.173c5.96 0 8.347 2.387 8.347 8.347v8.693c0 5.96-2.387 8.347-8.347 8.347h-.173c-5.36 0-7.827-1.933-8.267-6.653M20 16H4.827M7.8 11.533 3.333 16 7.8 20.467"/></symbol>
<symbol id="menu" viewBox="0 0 32 32"><path stroke-linecap="round" stroke-linejoin="round" stroke-miterlimit="10" stroke-width="2" d="M23.387 11.08a3.28 3.28 0 1 0-.001-6.561 3.28 3.28 0 0 0 .001 6.561zM8.613 11.08a3.28 3.28 0 1 0 0-6.56 3.28 3.28 0 0 0 0 6.56zM23.387 27.48a3.28 3.28 0 1 0-.001-6.561 3.28 3.28 0 0 0 .001 6.561zM8.613 27.48a3.28 3.28 0 1 0 0-6.56 3.28 3.28 0 0 0 0 6.56z"/></symbol>
<symbol id="milk" viewBox="0 0 32 32"><path stroke-linecap="round" stroke-linejoin="round" stroke-width="2" d="M24 20v5.333c0 2.2-1.8 4-4 4h-8c-2.2 0-4-1.8-4-4V18.64l5.187.027c.973 0 1.933.227 2.813.667s1.84.667 2.827.667H24z"/><path stroke-linecap="round" stroke-linejoin="round" stroke-width="2" d="M24 14.44V20h-5.173c-.987 0-1.947-.227-2.827-.667s-1.84-.667-2.813-.667L8 18.639v-4.2c0-.613.347-1.453.787-1.893l2.827-2.827c.24-.24.387-.587.387-.933v-2.12h8v2.12c0 .347.147.693.387.933l2.827 2.827c.44.44.787 1.28.787 1.893zM24 21.333V20M8 19.973V18.64"/><path stroke-linecap="round" stroke-linejoin="round" stroke-width="2" d="M19.333 6.667h-6.667c-1.107 0-2-.907-2-2s.893-2 2-2h6.667c1.107 0 2 .907 2 2s-.893 2-2 2z"/></symbol>
<symbol id="profile-circle" viewBox="0 0 32 32"><path stroke-linecap="round" stroke-linejoin="round" stroke-width="2" d="M16.16 17.04a1.316 1.316 0 0 0-.32 0 4.358 4.358 0 0 1-4.213-4.36A4.367 4.367 0 0 1 16 8.307a4.376 4.376 0 0 1 4.373 4.373 4.368 4.368 0 0 1-4.213 4.36zM24.986 25.84c-2.373 2.173-5.52 3.493-8.987 3.493s-6.613-1.32-8.987-3.493c.133-1.253.933-2.48 2.36-3.44 3.653-2.427 9.627-2.427 13.253 0 1.427.96 2.227 2.187 2.36 3.44z"/><path stroke-linecap="round" stroke-linejoin="round" stroke-width="2" d="M16 29.333c7.364 0 13.333-5.97 13.333-13.333S23.363 2.667 16 2.667C8.636 2.667 2.667 8.637 2.667 16S8.637 29.333 16 29.333z"/></symbol>
<symbol id="setting-2" viewBox="0 0 32 32"><path stroke-linecap="round" stroke-linejoin="round" stroke-miterlimit="10" stroke-width="2" d="M16 20a4 4 0 1 0 0-8 4 4 0 0 0 0 8z"/><path stroke-linecap="round" stroke-linejoin="round" stroke-miterlimit="10" stroke-width="2" d="M2.667 17.173v-2.347A2.54 2.54 0 0 1 5.2 12.293c2.413 0 3.4-1.707 2.187-3.8-.693-1.2-.28-2.76.933-3.453l2.307-1.32c1.053-.627 2.413-.253 3.04.8l.147.253c1.2 2.093 3.173 2.093 4.387 0l.147-.253c.627-1.053 1.987-1.427 3.04-.8l2.307 1.32a2.531 2.531 0 0 1 .933 3.453c-1.213 2.093-.227 3.8 2.187 3.8a2.54 2.54 0 0 1 2.533 2.533v2.347a2.54 2.54 0 0 1-2.533 2.533c-2.413 0-3.4 1.707-2.187 3.8a2.529 2.529 0 0 1-.933 3.453l-2.307 1.32c-1.053.627-2.413.253-3.04-.8l-.147-.253c-1.2-2.093-3.173-2.093-4.387 0l-.147.253c-.627 1.053-1.987 1.427-3.04.8l-2.307-1.32a2.531 2.531 0 0 1-.933-3.453c1.213-2.093.227-3.8-2.187-3.8a2.54 2.54 0 0 1-2.533-2.533z"/></symbol>
</defs>
</svg>