<svg xmlns="http://www.w3.org/2000/svg" aria-hidden="true" style="position:absolute;width:0;height:0;overflow:hidden">
<defs>
<symbol id="add" viewBox="0 0 32 32"><path stroke-linecap="round" stroke-linejoin="round" stroke-width="2" d="M8 16h16M16 24V8"/></symbol>
<symbol id="arrow-3" viewBox="0 0 32 32"><path stroke-linecap="round" stroke-linejoin="round" stroke-width="2" d="M13.933 8.96 8.973 4l-4.96 4.96M8.973 28V4M18.066 23.04l4.96 4.96 4.96-4.96M23.026 4v24"/></symbol>
<symbol id="arrow-down" viewBox="0 0 32 32">
<path d="M1.731 6.944c-0.644 0.15-1.231 0.644-1.525 1.275-0.144 0.319-0.175 0.456-0.169 0.906 0 1-0.6 0.325 7.45 8.387 4.856 4.863 7.25 7.219 7.444 7.325 0.456 0.244 0.988 0.331 1.462 0.231 0.212-0.044 0.519-0.15 0.675-0.231 0.194-0.106 2.587-2.462 7.444-7.325 8.050-8.063 7.45-7.387 7.45-8.387 0-0.45-0.025-0.588-0.175-0.919-0.525-1.15-1.925-1.638-3.069-1.069-0.163 0.081-2.425 2.3-6.481 6.35l-6.238 6.231-6.238-6.231c-4.075-4.069-6.319-6.269-6.481-6.35-0.475-0.231-1.063-0.306-1.55-0.194z" stroke="#E3FFA8" stroke-miterlimit="10" stroke-linecap="round" stroke-linejoin="round"/>
</symbol>
<symbol id="arrow-right" viewBox="0 0 32 32"><path fill='#E3FFA8' stroke="#E3FFA8" stroke-linecap="round" stroke-linejoin="round" stroke-miterlimit="10" stroke-width="2" d="M19.24 7.907 27.333 16l-8.093 8.093M4.667 16h22.44"/></symbol>
<symbol id="arrow-right-1" viewBox="0 0 32 32"><path stroke-linecap="round" stroke-linejoin="round" stroke-miterlimit="10" stroke-width="2" d="M8 16v-3.56c0-4.413 3.133-6.227 6.96-4.013L21.12 12c3.827 2.213 3.827 5.827 0 8.04l-6.16 3.573C11.133 25.786 8 23.986 8 19.56V16z"/></symbol>
<symbol id="bubble" viewBox="0 0 32 32"><path stroke-miterlimit="10" stroke-width="2" d="M20.787 16.347c3.778 0 6.84-3.062 6.84-6.84s-3.062-6.84-6.84-6.84-6.84 3.062-6.84 6.84 3.062 6.84 6.84 6.84zM8.48 25.92a4.107 4.107 0 1 0 0-8.215 4.107 4.107 0 0 0 0 8.215zM22.16 29.333a3.413 3.413 0 1 0 0-6.826 3.413 3.413 0 0 0 0 6.826z"/></symbol>
<symbol id="close-circle" viewBox="0 0 32 32"><path stroke-linecap="round" stroke-linejoin="round" stroke-width="2" d="M16 29.333c7.333 0 13.333-6 13.333-13.333S23.333 2.667 16 2.667 2.667 8.667 2.667 16s6 13.333 13.333 13.333zM12.227 19.773l7.547-7.547M19.773 19.773l-7.547-7.547"/></symbol>
<symbol id="direct-inbox" viewBox="0 0 32 32">
<path fill='rgba(227, 255, 168, 1)' d="M16 1.667c0.552 0 1 0.448 1 1v8.252l2.293-2.293c0.391-0.391 1.024-0.391 1.414 0s0.391 1.024 0 1.414l-4 4c-0.391 0.391-1.024 0.391-1.414 0l-4-4c-0.391-0.391-0.391-1.024 0-1.414s1.024-0.391 1.414 0l2.293 2.293v-8.252c0-0.552 0.448-1 1-1zM21.671 2.738c0.054-0.55 0.543-0.951 1.093-0.897 2.255 0.222 3.992 0.741 5.323 2.072 1.193 1.193 1.733 2.713 1.993 4.639 0.253 1.882 0.253 4.294 0.253 7.372v0.153c0 0.419 0 0.826-0.001 1.221 0 0.012 0.001 0.024 0.001 0.036 0 0.013-0 0.026-0.001 0.039-0.005 2.469-0.036 4.467-0.252 6.076-0.259 1.926-0.799 3.446-1.993 4.639s-2.713 1.733-4.639 1.992c-1.882 0.253-4.294 0.253-7.372 0.253h-0.153c-3.078 0-5.49 0-7.372-0.253-1.926-0.259-3.446-0.799-4.639-1.992s-1.734-2.713-1.993-4.639c-0.216-1.609-0.248-3.606-0.252-6.076-0-0.013-0.001-0.026-0.001-0.039 0-0.012 0-0.024 0.001-0.036-0.001-0.395-0.001-0.802-0.001-1.221v-0.153c0-3.078-0-5.49 0.253-7.372 0.259-1.926 0.799-3.446 1.993-4.639 1.331-1.331 3.069-1.85 5.323-2.072 0.55-0.054 1.039 0.348 1.093 0.897s-0.348 1.039-0.897 1.093c-2.079 0.205-3.258 0.649-4.105 1.495-0.76 0.76-1.195 1.787-1.425 3.492-0.233 1.733-0.235 4.011-0.235 7.182 0 0.112 0 0.223 0 0.333h3.214c0.060 0 0.12 0 0.179-0 1.030-0.001 1.846-0.002 2.58 0.336s1.264 0.957 1.934 1.74c0.038 0.045 0.077 0.090 0.116 0.136l0.807 0.942c0.845 0.986 1.082 1.23 1.367 1.361s0.625 0.153 1.923 0.153h0.427c1.298 0 1.638-0.021 1.923-0.153s0.522-0.375 1.367-1.361l0.807-0.942c0.039-0.046 0.078-0.091 0.116-0.136 0.669-0.783 1.2-1.403 1.934-1.74s1.55-0.337 2.58-0.336c0.059 0 0.119 0 0.179 0h3.214c0-0.11 0-0.221 0-0.333 0-3.171-0.002-5.449-0.235-7.182-0.229-1.705-0.665-2.732-1.425-3.492-0.846-0.846-2.026-1.291-4.105-1.495-0.55-0.054-0.951-0.543-0.897-1.093zM28.329 18.333h-3.209c-1.298 0-1.638 0.021-1.923 0.153s-0.522 0.375-1.367 1.361l-0.807 0.942c-0.039 0.046-0.078 0.091-0.116 0.136-0.669 0.783-1.2 1.403-1.934 1.74s-1.55 0.337-2.58 0.336c-0.059-0-0.119-0-0.179-0h-0.427c-0.060 0-0.12 0-0.179 0-1.030 0.001-1.846 0.002-2.58-0.336s-1.264-0.957-1.934-1.74c-0.038-0.045-0.077-0.090-0.116-0.136l-0.807-0.942c-0.845-0.986-1.082-1.23-1.367-1.361s-0.624-0.153-1.923-0.153h-3.209c0.013 2.004 0.059 3.573 0.231 4.849 0.229 1.705 0.665 2.732 1.425 3.492s1.787 1.195 3.492 1.425c1.733 0.233 4.011 0.235 7.182 0.235s5.449-0.002 7.182-0.235c1.705-0.229 2.732-0.665 3.492-1.425s1.195-1.787 1.425-3.492c0.171-1.275 0.218-2.845 0.231-4.849z"></path>
</symbol>
<svg   id="pencil" viewBox="0 0 16 16" fill="none">
<path d="M8.84006 2.39982L3.36673 8.19315C3.16006 8.41315 2.96006 8.84649 2.92006 9.14649L2.6734 11.3065C2.58673 12.0865 3.14673 12.6198 3.92006 12.4865L6.06673 12.1198C6.36673 12.0665 6.78673 11.8465 6.9934 11.6198L12.4667 5.82649C13.4134 4.82649 13.8401 3.68649 12.3667 2.29315C10.9001 0.913152 9.78673 1.39982 8.84006 2.39982Z"  stroke-miterlimit="10" stroke-linecap="round" stroke-linejoin="round"/>
<path d="M7.92676 3.3667C8.21342 5.2067 9.70676 6.61337 11.5601 6.80003"  stroke-miterlimit="10" stroke-linecap="round" stroke-linejoin="round"/>
<path d="M2 14.6665H14"  stroke-miterlimit="10" stroke-linecap="round" stroke-linejoin="round"/>
</svg>
<symbol id="edit-2" viewBox="0 0 32 32">
<path d="M22.262 2.219c-0.219 0.050-0.6 0.175-0.844 0.288-0.444 0.2-0.587 0.337-8.219 7.956-6.444 6.437-7.794 7.812-7.919 8.081-0.188 0.387-0.225 0.669-0.444 3.113-0.156 1.775-0.162 1.9-0.069 2.225 0.206 0.694 0.85 1.181 1.569 1.181 0.725 0 4.313-0.369 4.594-0.462 0.15-0.056 0.375-0.163 0.5-0.238 0.269-0.156 14.863-14.713 15.344-15.3 0.625-0.762 0.875-1.444 0.869-2.375-0.006-0.731-0.194-1.375-0.581-1.969-0.144-0.219-0.619-0.75-1.056-1.175-0.663-0.644-0.881-0.819-1.275-1.006-0.788-0.381-1.663-0.494-2.469-0.319zM23.788 4.281c0.425 0.213 1.538 1.344 1.725 1.756 0.188 0.406 0.188 0.963 0 1.344-0.075 0.156-0.425 0.563-0.825 0.963l-0.688 0.688-1.637-1.644-1.644-1.638 0.656-0.656c0.794-0.794 1.094-0.969 1.688-0.969 0.313 0 0.488 0.037 0.725 0.156zM16.45 16.581l-6.119 6.119-1.762 0.163c-0.963 0.087-1.775 0.137-1.8 0.119-0.019-0.025 0.031-0.837 0.119-1.8l0.162-1.762 12.231-12.231 3.281 3.281-6.113 6.113z" stroke="#b6b6b6" stroke-miterlimit="10" stroke-linecap="round" stroke-linejoin="round"/>
<path d="M2.25 28.45c-0.369 0.188-0.563 0.481-0.563 0.856s0.175 0.694 0.475 0.863l0.244 0.144h13.581c12.406 0 13.606-0.006 13.8-0.1 0.313-0.15 0.481-0.425 0.512-0.831 0.025-0.413-0.125-0.694-0.488-0.906-0.219-0.131-0.225-0.131-13.75-0.15l-13.531-0.012-0.281 0.137z" stroke="#b6b6b6" stroke-miterlimit="10" stroke-linecap="round" stroke-linejoin="round"/>
</symbol>
<symbol id="logout" viewBox="0 0 32 32"><path stroke-linecap="round" stroke-linejoin="round" stroke-width="2" d="M11.867 10.08c.413-4.8 2.88-6.76 8.28-6.76h.173c5.96 0 8.347 2.387 8.347 8.347v8.693c0 5.96-2.387 8.347-8.347 8.347h-.173c-5.36 0-7.827-1.933-8.267-6.653M20 16H4.827M7.8 11.533 3.333 16 7.8 20.467"/></symbol>
<symbol id="menu" viewBox="0 0 32 32"><path 
fill='none' stroke="#E3FFA8" stroke-linecap="round" stroke-linejoin="round" stroke-miterlimit="10" stroke-width="2" d="M23.387 11.08a3.28 3.28 0 1 0-.001-6.561 3.28 3.28 0 0 0 .001 6.561zM8.613 11.08a3.28 3.28 0 1 0 0-6.56 3.28 3.28 0 0 0 0 6.56zM23.387 27.48a3.28 3.28 0 1 0-.001-6.561 3.28 3.28 0 0 0 .001 6.561zM8.613 27.48a3.28 3.28 0 1 0 0-6.56 3.28 3.28 0 0 0 0 6.56z"/></symbol>
<symbol id="milk" viewBox="0 0 32 32"><path stroke-linecap="round" stroke-linejoin="round" stroke-width="2" d="M24 20v5.333c0 2.2-1.8 4-4 4h-8c-2.2 0-4-1.8-4-4V18.64l5.187.027c.973 0 1.933.227 2.813.667s1.84.667 2.827.667H24z"/><path stroke-linecap="round" stroke-linejoin="round" stroke-width="2" d="M24 14.44V20h-5.173c-.987 0-1.947-.227-2.827-.667s-1.84-.667-2.813-.667L8 18.639v-4.2c0-.613.347-1.453.787-1.893l2.827-2.827c.24-.24.387-.587.387-.933v-2.12h8v2.12c0 .347.147.693.387.933l2.827 2.827c.44.44.787 1.28.787 1.893zM24 21.333V20M8 19.973V18.64"/><path stroke-linecap="round" stroke-linejoin="round" stroke-width="2" d="M19.333 6.667h-6.667c-1.107 0-2-.907-2-2s.893-2 2-2h6.667c1.107 0 2 .907 2 2s-.893 2-2 2z"/></symbol>
<symbol id="profile-circle" viewBox="0 0 32 32">
<path d="M14.875 0.037c-0.119 0.013-0.488 0.056-0.813 0.087-2.063 0.225-4.344 1-6.188 2.1-2.344 1.4-4.25 3.306-5.65 5.65-1.094 1.825-1.819 3.95-2.112 6.188-0.1 0.769-0.1 3.106 0 3.875 0.512 3.894 2.225 7.188 5.125 9.881 1.6 1.494 3.594 2.656 5.763 3.369 1.713 0.569 3.069 0.775 5 0.775 1.425 0 2.056-0.056 3.313-0.313 4.306-0.881 8.15-3.644 10.462-7.525 1.094-1.825 1.819-3.95 2.113-6.188 0.1-0.769 0.1-3.106 0-3.875-0.294-2.238-1.019-4.363-2.113-6.188-1.4-2.344-3.306-4.25-5.65-5.65-1.806-1.081-3.962-1.819-6.125-2.1-0.55-0.075-2.738-0.131-3.125-0.087zM17.281 1.938c3.644 0.337 7.163 2.169 9.481 4.938 3.044 3.631 4.075 8.356 2.825 12.919-0.481 1.756-1.331 3.438-2.488 4.906-0.212 0.269-0.394 0.488-0.413 0.488s-0.119-0.269-0.219-0.6c-0.531-1.775-1.769-3.681-3.2-4.938-0.9-0.788-2.131-1.544-3.238-1.994l-0.25-0.1 0.219-0.163c0.394-0.294 1.35-1.3 1.581-1.662 0.887-1.381 1.262-2.875 1.106-4.4-0.231-2.287-1.569-4.256-3.594-5.313-4.213-2.188-9.3 0.569-9.781 5.313-0.125 1.231 0.113 2.525 0.662 3.619 0.444 0.881 1.181 1.794 1.906 2.344 0.169 0.125 0.306 0.25 0.306 0.269s-0.206 0.113-0.456 0.212c-1.688 0.681-3.375 2.006-4.556 3.569-0.681 0.906-1.331 2.181-1.65 3.25-0.094 0.325-0.194 0.594-0.213 0.594-0.050 0-0.763-0.925-1.119-1.456-0.394-0.587-1.087-1.938-1.369-2.656-0.487-1.238-0.794-2.669-0.9-4.219-0.325-4.481 1.694-9.031 5.244-11.863 2.869-2.288 6.506-3.388 10.113-3.056zM17.313 7.313c1.606 0.456 2.863 1.713 3.35 3.344 0.219 0.744 0.231 1.806 0.038 2.537-0.581 2.169-2.469 3.619-4.7 3.619s-4.119-1.45-4.7-3.619c-0.194-0.731-0.181-1.794 0.037-2.537 0.55-1.85 1.975-3.106 3.975-3.494 0.363-0.069 1.544 0.019 2 0.15zM17.281 18.881c1.938 0.25 3.65 1.113 5.131 2.587 1.113 1.113 1.813 2.238 2.262 3.656 0.163 0.506 0.419 1.694 0.369 1.719-0.006 0.006-0.194 0.15-0.419 0.325-1.925 1.5-4.244 2.462-6.844 2.837-0.725 0.106-2.838 0.106-3.563 0-2.6-0.375-4.919-1.337-6.844-2.837-0.225-0.175-0.412-0.319-0.419-0.325-0.013-0.006 0.025-0.244 0.075-0.525 0.569-3.231 2.881-5.938 6.006-7.025 1.381-0.481 2.694-0.613 4.244-0.413z"></path>
</symbol>
<symbol id="setting-2" viewBox="0 0 32 32"><path stroke-linecap="round" stroke-linejoin="round" stroke-miterlimit="10" stroke-width="2" d="M16 20a4 4 0 1 0 0-8 4 4 0 0 0 0 8z"/><path stroke-linecap="round" stroke-linejoin="round" stroke-miterlimit="10" stroke-width="2" d="M2.667 17.173v-2.347A2.54 2.54 0 0 1 5.2 12.293c2.413 0 3.4-1.707 2.187-3.8-.693-1.2-.28-2.76.933-3.453l2.307-1.32c1.053-.627 2.413-.253 3.04.8l.147.253c1.2 2.093 3.173 2.093 4.387 0l.147-.253c.627-1.053 1.987-1.427 3.04-.8l2.307 1.32a2.531 2.531 0 0 1 .933 3.453c-1.213 2.093-.227 3.8 2.187 3.8a2.54 2.54 0 0 1 2.533 2.533v2.347a2.54 2.54 0 0 1-2.533 2.533c-2.413 0-3.4 1.707-2.187 3.8a2.529 2.529 0 0 1-.933 3.453l-2.307 1.32c-1.053.627-2.413.253-3.04-.8l-.147-.253c-1.2-2.093-3.173-2.093-4.387 0l-.147.253c-.627 1.053-1.987 1.427-3.04.8l-2.307-1.32a2.531 2.531 0 0 1-.933-3.453c1.213-2.093.227-3.8-2.187-3.8a2.54 2.54 0 0 1-2.533-2.533z"/></symbol>
<symbol id="icon-logout" viewBox="0 0 32 32">
<path d="M16.375 1.725c-2.519 0.206-3.838 0.894-4.631 2.419-0.494 0.944-0.694 2.162-0.706 4.275-0.006 1.188 0 1.269 0.125 1.438 0.45 0.613 1.219 0.613 1.675 0 0.119-0.156 0.131-0.3 0.175-1.5 0.125-3.5 0.556-4.206 2.744-4.556 0.75-0.119 9.038-0.119 9.806 0 1.794 0.275 2.363 0.844 2.637 2.638 0.119 0.775 0.119 18.35 0 19.125-0.275 1.794-0.844 2.363-2.637 2.637-0.769 0.119-9.056 0.119-9.806 0-2.188-0.35-2.619-1.056-2.744-4.556-0.044-1.2-0.056-1.344-0.175-1.5-0.456-0.613-1.225-0.613-1.675 0-0.125 0.169-0.131 0.25-0.125 1.438 0.006 0.694 0.044 1.569 0.081 1.938 0.287 2.65 1.431 4.044 3.725 4.538 1.037 0.225 2.131 0.269 6.438 0.238 3.406-0.019 4.163-0.038 4.681-0.125 1.406-0.238 2.15-0.581 2.894-1.325 0.769-0.781 1.137-1.637 1.344-3.131 0.119-0.906 0.119-18.519 0-19.425-0.206-1.494-0.575-2.35-1.344-3.131-0.744-0.744-1.488-1.087-2.894-1.325-0.531-0.087-1.238-0.106-4.962-0.113-2.387-0.006-4.469-0.006-4.625 0.006z"></path>
<path d="M6.9 11.106c-0.331 0.188-4.963 4.206-5.094 4.412-0.156 0.262-0.156 0.7 0 0.963 0.144 0.231 4.794 4.25 5.119 4.419 0.825 0.431 1.769-0.631 1.244-1.406-0.075-0.119-0.731-0.719-1.45-1.337l-1.306-1.125 7.481-0.031c7.425-0.031 7.475-0.031 7.644-0.163 0.331-0.244 0.431-0.444 0.431-0.838s-0.1-0.594-0.431-0.838c-0.169-0.131-0.219-0.131-7.644-0.162l-7.481-0.031 1.306-1.125c0.719-0.619 1.375-1.219 1.45-1.338 0.281-0.419 0.15-1-0.306-1.338-0.231-0.169-0.713-0.2-0.963-0.063z"></path>
</symbol>
<symbol id="icon-setting" viewBox="0 0 32 32">
<path d="M12.794 0.069c-0.775 0.187-1.506 0.838-1.762 1.563-0.056 0.144-0.175 0.744-0.275 1.337-0.244 1.438-0.463 1.85-1.181 2.2-0.287 0.138-0.431 0.169-0.794 0.169-0.381-0.006-0.563-0.056-1.469-0.406-1.025-0.394-1.031-0.394-1.688-0.4-0.606 0-0.688 0.013-1.063 0.194-0.225 0.106-0.531 0.319-0.688 0.481-0.331 0.338-3.081 5.044-3.269 5.606-0.162 0.475-0.119 1.231 0.094 1.7 0.231 0.488 0.456 0.738 1.344 1.463 0.438 0.363 0.862 0.744 0.944 0.838 0.538 0.681 0.55 1.675 0.019 2.35-0.069 0.087-0.5 0.469-0.956 0.85-0.906 0.744-1.106 0.969-1.344 1.475-0.219 0.469-0.263 1.225-0.106 1.7 0.069 0.188 0.762 1.462 1.556 2.831 1.563 2.712 1.719 2.925 2.406 3.256 0.375 0.181 0.456 0.194 1.063 0.194 0.656-0.006 0.662-0.006 1.688-0.4 0.906-0.35 1.088-0.4 1.469-0.406 0.731-0.006 1.319 0.363 1.662 1.038 0.081 0.156 0.2 0.675 0.313 1.331 0.2 1.206 0.281 1.475 0.55 1.869 0.262 0.381 0.594 0.65 1.069 0.875l0.406 0.194 3.025 0.019c1.912 0.013 3.138-0.006 3.331-0.044 0.756-0.163 1.363-0.637 1.706-1.337 0.175-0.369 0.25-0.65 0.4-1.55 0.2-1.225 0.337-1.587 0.731-1.931 0.375-0.325 0.738-0.462 1.244-0.456 0.387 0 0.563 0.050 1.469 0.4 1.025 0.394 1.031 0.394 1.688 0.4 0.606 0 0.688-0.012 1.063-0.194 0.681-0.331 0.844-0.55 2.394-3.225 0.775-1.35 1.462-2.569 1.525-2.706 0.081-0.181 0.106-0.419 0.113-0.875 0-0.544-0.019-0.669-0.163-0.969-0.244-0.506-0.45-0.738-1.375-1.5-0.894-0.744-1.125-1.025-1.275-1.519-0.119-0.394-0.119-0.569 0-0.963 0.15-0.5 0.394-0.794 1.275-1.519 0.913-0.75 1.131-0.994 1.375-1.5 0.144-0.3 0.163-0.425 0.163-0.969-0.006-0.456-0.031-0.694-0.113-0.875-0.063-0.137-0.75-1.356-1.525-2.706-1.55-2.675-1.712-2.894-2.394-3.225-0.375-0.181-0.456-0.194-1.063-0.194-0.656 0.006-0.663 0.006-1.688 0.4-0.906 0.35-1.087 0.4-1.469 0.406-0.731 0.006-1.319-0.362-1.663-1.037-0.075-0.15-0.2-0.675-0.313-1.319-0.094-0.587-0.225-1.2-0.288-1.369-0.212-0.6-0.806-1.194-1.438-1.456-0.281-0.119-0.475-0.125-3.394-0.138-1.7-0.006-3.2 0.019-3.331 0.050zM18.625 2.513c0 0.013 0.081 0.5 0.188 1.094 0.269 1.55 0.575 2.225 1.369 2.994 0.881 0.862 2.163 1.338 3.319 1.244 0.606-0.050 0.775-0.094 1.925-0.513 0.525-0.194 0.962-0.338 0.969-0.325 0.012 0.013 0.606 1.037 1.319 2.269 1.031 1.794 1.275 2.262 1.212 2.319-0.044 0.037-0.4 0.331-0.781 0.65-0.9 0.738-1.262 1.15-1.575 1.781-0.35 0.694-0.462 1.181-0.462 1.975s0.113 1.281 0.462 1.975c0.313 0.631 0.675 1.044 1.575 1.781 0.381 0.319 0.738 0.613 0.781 0.65 0.063 0.056-0.188 0.531-1.212 2.319-0.712 1.231-1.306 2.256-1.319 2.269-0.006 0.012-0.444-0.131-0.969-0.325-1.15-0.419-1.319-0.462-1.925-0.512-1.156-0.094-2.444 0.387-3.325 1.238-0.781 0.769-1.1 1.456-1.363 3-0.106 0.594-0.188 1.081-0.188 1.087 0 0.012-1.181 0.019-2.625 0.019s-2.625-0.006-2.625-0.019c0-0.006-0.081-0.494-0.188-1.087-0.262-1.544-0.569-2.206-1.356-2.988-0.875-0.863-2.169-1.344-3.331-1.25-0.606 0.050-0.775 0.094-1.925 0.512-0.525 0.194-0.963 0.337-0.969 0.325-0.194-0.244-2.594-4.525-2.563-4.556 0.025-0.025 0.388-0.325 0.8-0.669 0.875-0.725 1.206-1.081 1.519-1.644 0.375-0.669 0.525-1.288 0.525-2.125s-0.15-1.456-0.525-2.125c-0.313-0.563-0.644-0.919-1.519-1.644-0.413-0.344-0.775-0.644-0.8-0.669-0.031-0.031 2.369-4.313 2.563-4.556 0.006-0.013 0.444 0.131 0.969 0.325 1.294 0.475 1.419 0.5 2.175 0.506 0.781 0 1.262-0.112 1.969-0.463 0.569-0.281 1-0.612 1.419-1.106 0.569-0.675 0.838-1.35 1.050-2.644 0.069-0.431 0.144-0.856 0.162-0.956l0.037-0.169h2.619c1.438 0 2.619 0.006 2.619 0.013z"></path>
<path d="M15.219 9.881c-0.875 0.113-1.9 0.506-2.713 1.044-0.456 0.3-1.287 1.137-1.6 1.606-1.425 2.162-1.425 4.775 0 6.938 0.313 0.469 1.144 1.306 1.6 1.606 2.381 1.569 5.3 1.431 7.444-0.35 1.881-1.556 2.669-4.194 1.944-6.506-0.694-2.225-2.519-3.862-4.756-4.281-0.512-0.094-1.438-0.125-1.919-0.056zM17.094 12.506c1.094 0.338 2.056 1.306 2.419 2.431 0.181 0.569 0.181 1.556 0 2.125-0.369 1.137-1.313 2.081-2.45 2.444-0.575 0.188-1.5 0.188-2.094 0.006-1.156-0.356-2.113-1.3-2.481-2.45-0.181-0.569-0.181-1.556 0.006-2.125 0.431-1.356 1.681-2.406 3.069-2.581 0.369-0.050 1.137 0.025 1.531 0.15z"></path>
</symbol>
</defs>
<symbol id="icon-arrow-right" viewBox="0 0 32 32">
<path fill="none" stroke="#b6b6b6" style="stroke: var(--color1, #b6b6b6)" stroke-linejoin="round" stroke-linecap="round" stroke-miterlimit="10" stroke-width="1.3333" d="M12.76 7.907l-8.093 8.093 8.093 8.093"></path>
<path fill="none" stroke="#b6b6b6" style="stroke: var(--color1, #b6b6b6)" stroke-linejoin="round" stroke-linecap="round" stroke-miterlimit="10" stroke-width="1.3333" d="M27.333 16h-22.44"></path>
</symbol>
<symbol id="google-auth" viewBox="0 0 256 262"><path fill="#4285F4" d="M255.878 133.451c0-10.734-.871-18.567-2.756-26.69H130.55v48.448h71.947c-1.45 12.04-9.283 30.172-26.69 42.356l-.244 1.622 38.755 30.023 2.685.268c24.659-22.774 38.875-56.282 38.875-96.027"></path>
  <path fill="#34A853" d="M130.55 261.1c35.248 0 64.839-11.605 86.453-31.622l-41.196-31.913c-11.024 7.688-25.82 13.055-45.257 13.055-34.523 0-63.824-22.773-74.269-54.25l-1.531.13-40.298 31.187-.527 1.465C35.393 231.798 79.49 261.1 130.55 261.1"></path>
  <path fill="#FBBC05" d="M56.281 156.37c-2.756-8.123-4.351-16.827-4.351-25.82 0-8.994 1.595-17.697 4.206-25.82l-.073-1.73L15.26 71.312l-1.335.635C5.077 89.644 0 109.517 0 130.55s5.077 40.905 13.925 58.602l42.356-32.782"></path>
  <path fill="#EB4335" d="M130.55 50.479c24.514 0 41.05 10.589 50.479 19.438l36.844-35.974C195.245 12.91 165.798 0 130.55 0 79.49 0 35.393 29.301 13.925 71.947l42.211 32.783c10.59-31.477 39.891-54.251 74.414-54.251"></path></symbol>
</svg>